<?xml version="1.0" encoding="utf-8"?>
<!-- Generator: Adobe Illustrator 19.0.0, SVG Export Plug-In . SVG Version: 6.00 Build 0)  -->
<svg version="1.1" xmlns="http://www.w3.org/2000/svg" xmlns:xlink="http://www.w3.org/1999/xlink" x="0px" y="0px" width="1952px"
	 height="1952px" viewBox="1242.2 -1010.5 1952 1952" style="enable-background:new 1242.2 -1010.5 1952 1952;"
	 xml:space="preserve">
<style type="text/css">
	.st0{clip-path:url(#SVGID_2_);}
	.st1{fill:#CCCCCC;}
	.st2{fill:#E5E5E5;}
	.st3{fill:#F2F2F2;}
	.st4{fill:#FFFFFF;}
	.st5{fill:#1A1A1A;}
	.st6{fill:#41B7C8;}
	.st7{fill:#7ABEC8;}
	.st8{fill:#FD1B14;}
	.st9{fill:#FD453F;}
	.st10{fill:#FFF535;}
	.st11{fill:#FFF870;}
	.st12{fill:#FFFBB8;}
	.st13{stroke:#000000;stroke-width:0.1;}
</style>
<g id="svg2" xmlns:svg="http://www.w3.org/2000/svg" xmlns:dc="http://purl.org/dc/elements/1.1/" xmlns:cc="http://web.resource.org/cc/" xmlns:rdf="http://www.w3.org/1999/02/22-rdf-syntax-ns#">
</g>
<g id="Layer_2">
	<g>
		<defs>
			<rect id="SVGID_1_" x="1242.2" y="-1010.5" width="1952" height="1952"/>
		</defs>
		<clipPath id="SVGID_2_">
			<use xlink:href="#SVGID_1_"  style="overflow:visible;"/>
		</clipPath>
		<g class="st0">
			<path class="st1" d="M2219.9,1330.2c-183.9,0-362.4-36.1-530.6-107.2c-80.8-34.2-158.7-76.5-231.6-125.7
				c-72.1-48.7-139.9-104.7-201.6-166.3s-117.6-129.4-166.3-201.6c-49.2-72.9-91.5-150.8-125.7-231.6
				C892.9,329.6,856.8,151,856.8-32.9c0-183.9,36.1-362.4,107.2-530.6c34.2-80.8,76.5-158.7,125.7-231.6
				c48.7-72.1,104.7-139.9,166.3-201.6s129.4-117.6,201.6-166.3c72.9-49.2,150.8-91.5,231.6-125.7
				c168.2-71.1,346.7-107.2,530.6-107.2c183.9,0,362.4,36.1,530.6,107.2c80.8,34.2,158.7,76.5,231.6,125.7
				c72.1,48.7,139.9,104.7,201.6,166.3s117.6,129.4,166.3,201.6c49.2,72.9,91.5,150.8,125.7,231.6
				c71.1,168.2,107.2,346.7,107.2,530.6c0,183.9-36.1,362.4-107.2,530.6c-34.2,80.8-76.5,158.7-125.7,231.6
				c-48.7,72.1-104.7,139.9-166.3,201.6s-129.4,117.6-201.6,166.3c-72.9,49.2-150.8,91.5-231.6,125.7
				C2582.3,1294.1,2403.8,1330.2,2219.9,1330.2z"/>
			<path class="st2" d="M2219.9,1214.2c-168.3,0-331.6-33-485.4-98c-73.9-31.3-145.2-70-211.9-115c-66-44.6-128.1-95.8-184.5-152.2
				s-107.6-118.5-152.2-184.5c-45-66.7-83.7-138-115-211.9c-65.1-153.8-98-317.1-98-485.4c0-168.3,33-331.6,98-485.4
				c31.3-73.9,70-145.2,115-211.9c44.6-66,95.8-128.1,152.2-184.5s118.5-107.6,184.5-152.2c66.7-45,138-83.7,211.9-115
				c153.8-65.1,317.1-98,485.4-98c168.3,0,331.6,33,485.4,98c73.9,31.3,145.2,70,211.9,115c66,44.6,128.1,95.8,184.5,152.2
				s107.6,118.5,152.2,184.5c45,66.7,83.7,138,115,211.9c65.1,153.8,98,317.1,98,485.4c0,168.3-33,331.6-98,485.4
				c-31.3,73.9-70,145.2-115,211.9c-44.6,66-95.8,128.1-152.2,184.5s-118.5,107.6-184.5,152.2c-66.7,45-138,83.7-211.9,115
				C2551.5,1181.2,2388.2,1214.2,2219.9,1214.2z"/>
			<circle id="Zone1" class="st3" cx="2219.9" cy="-32.9" r="1131"/>
			<circle id="Zone2" class="st4" cx="2219.9" cy="-32.9" r="1017.6"/>
			<circle id="Zone3" cx="2219.9" cy="-32.9" r="907.1"/>
			<circle id="Zone4" class="st5" cx="2219.9" cy="-32.9" r="790.9"/>
			<circle id="Zone5" class="st6" cx="2219.9" cy="-32.9" r="680.3"/>
			<circle id="Zone6" class="st7" cx="2219.9" cy="-32.9" r="564.1"/>
			<circle id="Zone7" class="st8" cx="2219.9" cy="-32.9" r="450.7"/>
			<circle id="Zone8" class="st9" cx="2219.9" cy="-32.9" r="337.3"/>
			<circle id="Zone9" class="st10" cx="2219.9" cy="-32.9" r="223.9"/>
			<circle id="Zone10" class="st11" cx="2219.9" cy="-32.9" r="110.6"/>
			<circle id="Inner10" class="st12" cx="2219.9" cy="-32.9" r="53.9"/>
			<path id="Center" class="st13" d="M2214.2-32.9h11.3 M2219.9-38.5v11.3"/>
		</g>
	</g>
</g>
</svg>
